# xmcd
#
# Track frame offsets:
# 150
# 13732
# 25737
# 39150
# 49722
# 62772
# 79970
# 90825
# 105745
# 117660
#
# Disc length: 1805 seconds
#
#
# Revision: 0
# Processed by: cddbd v1.5.2PL0 Copyright (c) Steve Scherf et al.
# Submitted via: FreeRIP 2.944 
#
DISCID=74070b0a
DTITLE=Patti Miner - Simply Patti Miner
DYEAR=1993
DGENRE=
TTITLE0=Outlaw Blues
TTITLE1=One in a Million
TTITLE2=Look Me Right in the Heart
TTITLE3=Between the Devil and the Deep
TTITLE4=Love Can Turn the Tide
TTITLE5=Goin Home
TTITLE6=Get Your Hands Off My Feelings
TTITLE7=One of the Boys
TTITLE8=Here Goes Nothing
TTITLE9=Love Has a Mind of Its Own
EXTD=
EXTT0=
EXTT1=
EXTT2=
EXTT3=
EXTT4=
EXTT5=
EXTT6=
EXTT7=
EXTT8=
EXTT9=
PLAYORDER=
